<svg id="Layer_1" enable-background="new 0 0 64 64" height="512" viewBox="0 0 64 64" width="512" xmlns="http://www.w3.org/2000/svg"><path d="m43 32c0 5.34-.18 10.67-.52 16 0 0 0 8-10.48 8-5.24 0-7.86-2-9.17-4-.45-.7-.75-1.4-.95-2.01-.36-1.14-.36-1.99-.36-1.99-.34-5.33-.52-10.66-.52-16s.18-10.67.52-16c0 0 0-8 10.48-8 5.24 0 7.86 2 9.17 4s1.31 4 1.31 4c.02.24.03.49.04.73.32 5.09.48 10.17.48 15.27z" fill="#cadfdc"/><g fill="#e3eeec"><path d="m32.002 45.5c-.131 0-.258-.052-.351-.144-.096-.095-.15-.225-.149-.36.005-.691.215-1.213.622-1.551.578-.479 1.301-.365 1.381-.351.219.04.385.219.408.44.009.081.068.802-.43 1.366-.34.385-.835.587-1.472.6-.002 0-.006 0-.009 0z"/><path d="m35 49.204c-.286 1.044-1.032 2.296-1.911 2.296-.368 0-.726-.095-1.022-.256-.296.161-.654.256-1.022.256-1.125 0-2.045-2.059-2.045-3.103s.92-1.897 2.044-1.897c.368 0 .726.095 1.022.256.296-.161.654-.256 1.022-.256.542 0 1.032.19 1.39.512-.235.247-.368.56-.368.911.001.569.369 1.063.89 1.281z"/><path d="m32 8c0 5.91-1.652 11.696-4.784 16.708-2.57 4.114-5.216 11.66-5.216 25.292-.04 0-.08 0-.12-.01-.36-1.14-.36-1.99-.36-1.99-.34-5.33-.52-10.66-.52-16s.18-10.67.52-16c0 0 0-8 10.48-8z"/></g><path d="m32 8c0 5.91 1.652 11.696 4.783 16.708 2.571 4.114 5.217 11.66 5.217 25.292.04 0 .08 0 .12-.01.36-1.14.36-1.99.36-1.99.34-5.33.52-10.66.52-16s-.18-10.67-.52-16c0 0 0-8-10.48-8z" fill="#bad3ce"/><path d="m22.412 52.274c1.262 1.928 3.95 4.226 9.588 4.226 10.854 0 10.98-8.415 10.979-8.468.258-4.05.422-8.095.487-12.015l.033-1c.009-.276-.207-.507-.483-.516-.3-.026-.508.208-.517.483l-.033 1.008c-.064 3.912-.228 7.942-.486 12.008 0 .306-.113 7.5-9.98 7.5-4.167 0-7.112-1.27-8.752-3.774-1.206-1.841-1.229-3.708-1.229-3.758-.344-5.396-.519-10.769-.519-15.968s.175-10.572.52-16c0-.306.113-7.5 9.98-7.5 4.167 0 7.112 1.27 8.752 3.774 1.206 1.841 1.229 3.708 1.23 3.767.018.224.027.457.038.721.298 4.721.458 9.512.478 14.241.001.275.225.498.5.498h.002c.276-.001.499-.226.498-.502-.02-4.749-.181-9.56-.48-14.317-.01-.238-.02-.484-.037-.681 0-.088-.016-2.173-1.393-4.274-1.262-1.929-3.95-4.227-9.588-4.227-10.854 0-10.98 8.415-10.979 8.468-.346 5.418-.521 10.811-.521 16.032s.175 10.614.52 16c0 .088.015 2.173 1.392 4.274z"/><path d="m42.993 32.404c-.001 0-.001 0 0 0-.275 0-.5.318-.502.592 0 .045.005.088.017.128.051.24.252.472.489.472h.002c.273-.001.497-.319.499-.593 0-.031-.002-.06-.008-.088-.044-.472-.386-.511-.497-.511z"/><path d="m31.502 44.996c-.001.135.053.265.148.36.094.092.22.144.352.144h.01c.637-.013 1.132-.215 1.472-.6.498-.564.438-1.286.43-1.366-.023-.221-.189-.4-.408-.44-.082-.015-.804-.129-1.381.351-.408.338-.618.86-.623 1.551z"/><path d="m28.5 48.397c0 1.266 1.049 3.603 2.544 3.603.354 0 .702-.069 1.022-.203.32.134.668.203 1.023.203 1.143 0 2.042-1.381 2.394-2.664.073-.267-.084-.542-.351-.615-.263-.071-.54.083-.614.35-.287 1.046-.941 1.929-1.429 1.929-.274 0-.553-.069-.783-.195-.148-.081-.329-.082-.478 0-.232.126-.511.195-.784.195-.726 0-1.544-1.698-1.544-2.603 0-.771.692-1.397 1.544-1.397.273 0 .552.069.784.195.148.081.329.081.478 0 .572-.311 1.379-.226 1.838.189.206.186.521.169.706-.037.186-.205.169-.521-.036-.707-.708-.638-1.839-.817-2.747-.438-.321-.133-.67-.202-1.023-.202-1.402 0-2.544 1.076-2.544 2.397z"/><path d="m31.5 20c0 .276.224.5.5.5s.5-.224.5-.5v-6c0-.276-.224-.5-.5-.5s-.5.224-.5.5z"/><path d="m31.81 12.46c.061.03.13.04.19.04s.13-.01.189-.04c.061-.02.12-.06.16-.11.101-.09.15-.22.15-.35s-.05-.26-.15-.35c-.18-.19-.52-.19-.7 0-.099.09-.149.22-.149.35s.05.26.149.35c.04.05.101.09.161.11z"/></svg>